 <svg  version="1.0" xmlns="http://www.w3.org/2000/svg"  width="300.000000pt" height="108.000000pt" viewBox="0 0 300.000000 108.000000"  preserveAspectRatio="xMidYMid meet">  <g transform="translate(0.000000,108.000000) scale(0.100000,-0.100000)" fill="#656ffb" stroke="none"> <path d="M560 875 l0 -55 55 0 55 0 0 55 0 55 -55 0 -55 0 0 -55z m76 14 c3 -6 0 -17 -8 -25 -13 -13 -16 -13 -28 1 -12 14 -11 18 1 26 19 12 26 11 35 -2z"/> <path d="M405 791 c-118 -29 -194 -134 -195 -266 0 -119 58 -209 165 -256 42 -19 66 -22 163 -21 97 1 121 5 166 25 119 55 177 143 184 283 l5 84 -52 0 -51 0 0 -70 c0 -81 -15 -122 -60 -168 -66 -66 -246 -84 -337 -33 -37 21 -83 82 -83 110 0 7 34 11 103 11 129 0 179 21 217 90 21 38 25 59 25 130 l0 85 -110 2 c-60 1 -123 -2 -140 -6z m203 -31 c24 -23 27 -37 12 -60 -8 -12 -10 -12 -15 2 -21 55 -193 43 -262 -19 -55 -50 -69 -108 -36 -146 17 -18 17 -19 0 -32 -39 -28 -9 -110 56 -153 23 -15 49 -28 57 -30 17 -4 193 -3 232 1 35 4 119 62 125 88 3 10 9 19 13 19 9 0 28 82 33 135 1 19 8 30 17 30 11 0 15 -12 15 -50 1 -27 -2 -57 -6 -65 -4 -8 -13 -28 -20 -45 -21 -46 -74 -99 -128 -128 -42 -23 -60 -27 -157 -29 -158 -3 -213 26 -283 146 -45 79 -22 203 51 277 50 49 81 60 178 61 49 0 87 5 84 9 -10 17 12 9 34 -11z m-28 -94 c0 -33 -6 -52 -24 -73 -23 -27 -29 -28 -135 -33 -125 -6 -131 -2 -88 60 40 59 70 74 160 81 45 3 83 6 85 7 1 1 2 -18 2 -42z"/> <path d="M699 790 c-6 -71 -5 -75 39 -78 l42 -3 0 45 0 46 -40 0 c-22 0 -40 -4 -41 -10z"/> <path d="M2422 711 c-8 -4 -12 -19 -10 -32 4 -29 45 -34 61 -7 19 30 -19 60 -51 39z"/> <path d="M1040 530 l0 -170 111 0 110 0 -3 27 c-3 26 -3 26 -80 24 l-78 -2 0 48 0 48 70 -3 70 -4 0 32 0 32 -70 -4 -70 -3 0 48 0 47 80 0 c79 0 80 0 80 25 l0 25 -110 0 -110 0 0 -170z"/> <path d="M1302 510 c3 -103 5 -113 27 -131 33 -27 104 -26 131 3 l20 22 0 -22 c0 -17 6 -22 25 -22 l25 0 0 131 0 130 -26 -3 c-26 -3 -26 -4 -28 -90 -1 -97 -13 -121 -62 -120 -49 0 -66 33 -63 126 l2 81 -27 3 -28 4 4 -112z"/> <path d="M1580 490 l0 -130 30 0 30 0 0 83 c0 96 15 127 59 127 48 0 61 -26 61 -123 l0 -87 31 0 31 0 -4 106 c-3 102 -4 107 -31 130 -36 31 -98 33 -127 4 -20 -20 -20 -20 -20 0 0 16 -7 20 -30 20 l-30 0 0 -130z"/> <path d="M1909 597 c-47 -31 -66 -91 -47 -149 18 -57 64 -88 130 -88 41 0 54 5 84 33 31 28 37 42 41 83 9 91 -39 144 -130 144 -29 0 -55 -8 -78 -23z m121 -37 c27 -14 41 -64 28 -100 -19 -55 -82 -67 -123 -25 -65 64 14 168 95 125z"/> <path d="M2166 508 c56 -144 55 -142 89 -142 28 0 31 6 77 119 26 65 48 122 48 127 0 4 -13 8 -28 8 -27 0 -30 -5 -62 -96 -37 -109 -33 -110 -79 29 -22 65 -24 67 -55 67 l-33 0 43 -112z"/> <path d="M2420 618 c0 -2 -1 -59 -2 -128 l-1 -125 27 -3 26 -3 0 130 0 131 -25 0 c-14 0 -25 -1 -25 -2z"/> <path d="M2555 595 c-34 -33 -32 -55 4 -55 16 0 31 6 35 15 7 18 67 20 84 3 18 -18 15 -45 -5 -45 -86 1 -105 -4 -135 -33 -24 -25 -29 -36 -24 -58 4 -15 16 -35 28 -44 26 -22 96 -24 126 -2 20 14 22 14 22 -1 0 -12 7 -15 28 -13 l27 3 0 103 c0 101 -1 104 -28 128 -41 35 -127 34 -162 -1z m135 -134 c0 -22 -44 -61 -69 -61 -10 0 -26 6 -37 14 -37 28 4 58 89 65 11 1 17 -6 17 -18z"/> </g> </svg> 